<svg width="40" height="40" viewBox="0 0 40 40" fill="none" xmlns="http://www.w3.org/2000/svg">
<path d="M20 0C8.97799 0 0 8.97799 0 20C0 31.022 8.97799 40 20 40C31.022 40 40 31.022 40 20C40 8.97799 31.022 0 20 0ZM20 4C28.8602 4 36 11.1398 36 20C36 28.0289 30.1306 34.626 22.4375 35.7969V24.7695H27.0938L27.8242 20.0391H22.4375V17.4531C22.4375 15.4871 23.078 13.7422 24.918 13.7422H27.8711V9.61328C27.3511 9.54328 26.2537 9.39062 24.1797 9.39062C19.8477 9.39062 17.3086 11.6786 17.3086 16.8906V20.0391H12.8555V24.7695H17.3086V35.7578C9.74058 34.4817 4 27.9405 4 20C4 11.1398 11.1398 4 20 4Z" fill="white"/>
</svg>
