<svg width="36" height="36" viewBox="0 0 36 36" fill="none" xmlns="http://www.w3.org/2000/svg">
<path d="M4.09091 0C1.85369 0 0 1.85369 0 4.09091V31.9091C0 34.1463 1.85369 36 4.09091 36H31.9091C34.1463 36 36 34.1463 36 31.9091V4.09091C36 1.85369 34.1463 0 31.9091 0H4.09091ZM4.09091 3.27273H31.9091C32.3757 3.27273 32.7273 3.62429 32.7273 4.09091V31.9091C32.7273 32.3757 32.3757 32.7273 31.9091 32.7273H4.09091C3.62429 32.7273 3.27273 32.3757 3.27273 31.9091V4.09091C3.27273 3.62429 3.62429 3.27273 4.09091 3.27273ZM8.89773 6.08523C7.34446 6.08523 6.08523 7.34446 6.08523 8.89773C6.08523 10.451 7.34446 11.7102 8.89773 11.7102C10.451 11.7102 11.7102 10.451 11.7102 8.89773C11.7102 7.34446 10.451 6.08523 8.89773 6.08523ZM23.6761 13.5511C21.3303 13.5511 19.7706 14.8359 19.125 16.0568H19.0227V13.9091H14.4205V29.4545H19.2273V21.7841C19.2273 19.7578 19.63 17.7955 22.142 17.7955C24.6158 17.7955 24.6477 20.0838 24.6477 21.8864V29.4545H29.4545V20.9148C29.4545 16.7344 28.5661 13.5511 23.6761 13.5511ZM6.54545 13.9091V29.4545H11.4034V13.9091H6.54545Z" fill="white"/>
</svg>
